<?xml version="1.0" standalone="no"?>
<!DOCTYPE svg PUBLIC "-//W3C//DTD SVG 20010904//EN"
 "http://www.w3.org/TR/2001/REC-SVG-20010904/DTD/svg10.dtd">
<svg version="1.0" xmlns="http://www.w3.org/2000/svg"
 width="700.000000pt" height="700.000000pt" viewBox="0 0 700.000000 700.000000"
 preserveAspectRatio="xMidYMid meet">
<metadata>
Created by potrace 1.14, written by Peter Selinger 2001-2017
</metadata>
<g transform="translate(0.000000,700.000000) scale(0.100000,-0.100000)"
fill="#000000" stroke="none">
<path d="M3447 6963 c-1 -1 -45 -4 -97 -8 -52 -3 -106 -8 -120 -10 -14 -3 -45
-7 -70 -9 -430 -41 -764 -134 -1150 -323 -85 -42 -156 -80 -158 -84 -2 -5 -9
-9 -16 -9 -17 0 -258 -146 -331 -200 -226 -168 -283 -217 -440 -375 -192 -192
-366 -406 -470 -580 -27 -44 -56 -91 -64 -105 -33 -54 -143 -268 -191 -375
-100 -219 -212 -592 -244 -810 -4 -23 -8 -52 -11 -65 -3 -14 -7 -54 -11 -90
-3 -36 -7 -76 -10 -90 -10 -44 -13 -563 -4 -625 4 -33 11 -80 14 -105 3 -25 7
-56 10 -70 2 -14 8 -47 12 -75 4 -27 8 -54 10 -60 1 -5 5 -26 9 -45 57 -311
158 -615 279 -842 57 -106 76 -158 82 -228 5 -57 3 -65 -230 -738 -64 -186
-86 -281 -91 -391 -6 -131 67 -300 168 -387 44 -38 127 -83 189 -103 57 -19
175 -20 269 -4 74 13 290 77 344 103 21 10 217 74 225 73 3 0 75 24 160 54 85
30 175 60 200 67 84 24 142 9 334 -84 78 -37 173 -80 211 -94 39 -15 79 -31
90 -36 99 -42 318 -102 485 -133 122 -23 166 -30 340 -52 85 -11 213 -19 310
-19 101 0 296 11 336 18 10 2 53 7 94 11 68 6 217 27 280 40 56 11 68 14 130
30 66 16 223 62 250 72 8 3 20 7 25 9 39 11 205 73 295 111 75 31 299 144 325
163 6 5 42 25 80 45 75 40 250 152 275 176 8 8 44 36 80 64 36 27 74 59 86 70
12 11 48 44 82 73 134 116 249 237 385 406 45 56 85 102 90 104 4 2 7 10 7 17
0 7 4 15 9 17 10 4 100 137 130 193 12 22 26 47 31 55 42 68 203 373 205 390
1 3 9 23 19 45 19 43 66 164 70 180 2 6 6 17 9 25 18 42 35 100 30 100 -3 0
-1 6 5 13 6 7 13 24 16 37 3 14 14 57 26 95 11 39 22 79 24 90 2 11 13 61 24
110 11 50 23 115 27 145 4 30 9 62 10 70 1 8 6 47 10 85 4 39 9 84 11 100 7
60 18 272 18 345 0 78 -11 261 -19 298 -2 11 -6 48 -10 81 -3 33 -7 68 -9 78
-2 10 -6 39 -10 64 -53 363 -207 803 -396 1124 -16 28 -41 74 -56 103 -16 28
-32 52 -36 52 -4 0 -8 5 -8 11 0 19 -150 233 -215 305 -5 7 -30 35 -55 64
-136 158 -306 333 -405 415 -33 28 -66 55 -73 62 -27 25 -236 171 -339 236
-103 64 -397 217 -511 265 -227 96 -603 194 -882 232 -47 6 -96 13 -110 15
-75 13 -385 27 -393 18z m275 -707 c90 -7 99 -8 233 -32 604 -110 1066 -337
1464 -719 224 -214 462 -543 583 -805 27 -58 53 -114 59 -125 21 -46 110 -331
134 -430 57 -242 78 -411 78 -630 -1 -232 -22 -431 -69 -642 -86 -387 -316
-850 -574 -1158 -59 -70 -302 -306 -380 -369 -270 -216 -636 -405 -973 -502
-137 -39 -338 -82 -424 -90 -32 -3 -69 -7 -83 -10 -42 -9 -400 -12 -439 -4
-20 5 -70 11 -110 15 -41 3 -77 8 -80 9 -4 2 -31 7 -61 10 -73 9 -309 56 -340
69 -8 3 -48 15 -88 27 -151 44 -340 129 -511 230 -194 114 -403 110 -746 -12
-300 -107 -434 -152 -440 -146 -3 3 15 66 40 139 25 74 47 139 49 144 5 17 18
49 31 80 17 39 82 243 90 281 24 113 31 179 29 249 -4 136 -31 214 -120 356
-26 42 -127 248 -130 266 -1 7 -14 43 -28 80 -36 98 -83 269 -105 392 -28 152
-31 170 -37 231 -5 52 -11 95 -14 95 0 0 -3 32 -6 70 -11 139 -6 409 10 495 2
14 7 43 10 65 3 22 12 76 21 120 9 44 18 93 21 108 2 16 6 33 10 38 3 5 7 20
10 33 5 28 58 201 72 236 13 31 25 63 26 70 9 41 146 327 203 425 36 61 124
196 133 205 3 3 29 37 58 75 162 212 411 447 629 593 81 55 366 212 384 212 4
0 38 14 76 31 400 180 848 257 1305 225z"/>
<path d="M3484 5149 c-76 -10 -123 -29 -434 -177 -41 -20 -77 -36 -80 -37 -7
-1 -188 -80 -278 -122 -42 -20 -81 -37 -87 -39 -5 -1 -59 -25 -118 -53 -59
-28 -110 -51 -112 -51 -7 0 -220 -103 -225 -109 -3 -3 -9 -6 -15 -7 -21 -2
-55 -17 -55 -23 0 -4 -6 -8 -13 -8 -8 0 -34 -9 -58 -21 -24 -11 -111 -51 -194
-87 -82 -37 -154 -70 -160 -74 -5 -4 -48 -23 -95 -41 -101 -40 -151 -66 -167
-88 -7 -9 -13 -13 -13 -9 0 3 -10 -4 -23 -17 -22 -22 -57 -85 -61 -110 -1 -6
-4 -15 -6 -21 -3 -5 -5 -37 -5 -70 0 -33 -4 -63 -10 -67 -7 -5 -6 -8 1 -8 6 0
10 -31 9 -84 0 -46 4 -82 8 -79 5 3 4 -3 -1 -14 -6 -11 -7 -25 -2 -33 6 -9 5
-17 -3 -22 -8 -5 -9 -8 -1 -8 7 0 10 -13 9 -30 -1 -17 1 -33 6 -36 5 -3 4 -14
-2 -26 -8 -14 -8 -23 0 -31 7 -7 7 -16 -1 -30 -7 -14 -7 -22 2 -27 9 -6 9 -9
-1 -13 -11 -4 -11 -6 -1 -6 8 -1 10 -6 6 -13 -5 -7 -9 -31 -11 -53 -6 -81 -9
-100 -17 -114 -7 -10 -5 -12 5 -6 12 8 12 6 0 -8 -7 -10 -9 -17 -3 -17 6 0 9
-8 7 -17 -1 -10 0 -22 4 -28 3 -5 6 -14 7 -20 3 -25 17 -55 25 -55 5 0 9 -5 9
-10 0 -31 105 -100 150 -100 124 0 212 124 205 287 -3 63 -13 155 -24 218 -7
36 -8 109 -3 188 2 25 5 27 30 21 15 -4 59 -19 97 -35 39 -15 77 -29 85 -31 8
-2 17 -6 20 -9 4 -6 298 -149 305 -149 1 0 29 -12 61 -27 33 -15 61 -27 64
-28 3 0 31 -13 63 -28 32 -15 59 -27 62 -27 2 0 34 -14 72 -31 37 -17 82 -37
98 -44 17 -7 69 -31 118 -53 48 -23 87 -38 87 -34 0 4 4 2 8 -4 7 -10 40 -27
202 -102 301 -139 331 -152 354 -157 12 -2 21 -4 21 -5 0 -5 50 -13 111 -17
65 -5 79 -2 165 32 52 21 146 62 209 92 63 30 141 66 173 79 32 14 87 38 123
54 35 17 66 30 68 30 3 0 73 33 158 74 84 40 196 92 248 114 52 23 124 55 160
73 100 49 207 97 299 135 47 20 131 60 187 89 57 29 145 70 196 90 109 42 144
60 176 89 80 72 79 213 -3 284 -18 16 -66 42 -106 57 -41 15 -144 63 -230 106
-87 43 -196 95 -245 115 -48 20 -153 67 -233 106 -80 38 -243 113 -361 165
-118 52 -257 115 -309 139 -51 24 -95 44 -96 44 -2 0 -43 19 -92 41 -393 184
-415 191 -519 178z"/>
<path d="M2024 3208 c-3 -5 -8 -71 -10 -146 -6 -247 46 -430 167 -592 59 -79
96 -114 263 -247 27 -22 113 -76 179 -112 116 -64 321 -131 492 -160 33 -5 76
-13 95 -16 75 -14 484 -14 593 0 60 8 117 17 129 20 11 4 30 8 41 10 78 10
332 89 342 106 4 5 14 9 24 9 38 0 275 151 375 239 158 140 231 266 278 476
25 114 27 399 4 423 -8 7 -169 -64 -388 -171 -128 -63 -280 -132 -338 -152
-96 -35 -224 -97 -341 -166 -150 -88 -270 -131 -385 -137 -148 -7 -209 14
-564 200 -80 42 -183 88 -229 103 -46 15 -195 83 -331 151 -255 128 -384 181
-396 162z"/>
</g>
</svg>
